<mxfile host="app.diagrams.net" modified="2023-08-17T10:28:14.837Z" agent="Mozilla/5.0 (Windows NT 10.0; Win64; x64) AppleWebKit/537.36 (KHTML, like Gecko) Chrome/115.0.0.0 Safari/537.36 Edg/115.0.1901.183" etag="fkAGUu_WJXGRFrLMl06y" version="21.6.8" type="github">
  <diagram name="Global Overview" id="m-1QY2oT3l0n69f6nNiI">
    <mxGraphModel dx="2815" dy="2872" grid="0" gridSize="10" guides="1" tooltips="1" connect="1" arrows="1" fold="1" page="0" pageScale="1" pageWidth="850" pageHeight="1100" background="#000000" math="0" shadow="0">
      <root>
        <mxCell id="0" />
        <mxCell id="1" parent="0" />
        <mxCell id="ImhGzAs-u86jqNpPHCjo-1" value="&lt;font style=&quot;font-size: 20px;&quot;&gt;&lt;b&gt;HIsarna.Standard.Domain&lt;br&gt;(Abstract Implimentation)&lt;br&gt;&lt;/b&gt;&lt;/font&gt;" style="ellipse;whiteSpace=wrap;html=1;fillColor=#fad7ac;strokeColor=#b46504;" parent="1" vertex="1">
          <mxGeometry x="10" y="-1360" width="260" height="180" as="geometry" />
        </mxCell>
        <mxCell id="ImhGzAs-u86jqNpPHCjo-2" value="&lt;font style=&quot;font-size: 20px;&quot;&gt;&lt;b&gt;HIsarna.Standard.BLL&lt;br&gt;&lt;/b&gt;&lt;b style=&quot;border-color: var(--border-color);&quot;&gt;(Concrete Implimentation)&lt;/b&gt;&lt;b&gt;&lt;br&gt;&lt;/b&gt;&lt;/font&gt;" style="ellipse;whiteSpace=wrap;html=1;fillColor=#fad7ac;strokeColor=#b46504;" parent="1" vertex="1">
          <mxGeometry x="10" y="-1100" width="260" height="180" as="geometry" />
        </mxCell>
        <mxCell id="ImhGzAs-u86jqNpPHCjo-3" value="&lt;font style=&quot;font-size: 20px;&quot;&gt;&lt;b&gt;HIsarna.Standard.Services&lt;br&gt;(Interface definition only)&lt;br&gt;&lt;/b&gt;&lt;/font&gt;" style="ellipse;whiteSpace=wrap;html=1;fillColor=#fad7ac;strokeColor=#b46504;" parent="1" vertex="1">
          <mxGeometry x="10" y="-709.46" width="260" height="180" as="geometry" />
        </mxCell>
        <mxCell id="ImhGzAs-u86jqNpPHCjo-4" style="edgeStyle=orthogonalEdgeStyle;rounded=0;orthogonalLoop=1;jettySize=auto;html=1;exitX=0.25;exitY=1;exitDx=0;exitDy=0;entryX=0.5;entryY=0;entryDx=0;entryDy=0;strokeWidth=4;strokeColor=#F2F2F2;curved=1;" parent="1" source="ImhGzAs-u86jqNpPHCjo-7" target="ImhGzAs-u86jqNpPHCjo-12" edge="1">
          <mxGeometry relative="1" as="geometry" />
        </mxCell>
        <mxCell id="ImhGzAs-u86jqNpPHCjo-5" style="edgeStyle=orthogonalEdgeStyle;rounded=0;orthogonalLoop=1;jettySize=auto;html=1;exitX=0.5;exitY=1;exitDx=0;exitDy=0;curved=1;strokeWidth=4;strokeColor=#F7F7F7;entryX=0.5;entryY=0;entryDx=0;entryDy=0;" parent="1" source="ImhGzAs-u86jqNpPHCjo-7" target="ImhGzAs-u86jqNpPHCjo-1" edge="1">
          <mxGeometry relative="1" as="geometry">
            <mxPoint x="150" y="-1380" as="targetPoint" />
          </mxGeometry>
        </mxCell>
        <mxCell id="ImhGzAs-u86jqNpPHCjo-6" style="edgeStyle=orthogonalEdgeStyle;rounded=0;orthogonalLoop=1;jettySize=auto;html=1;exitX=0.75;exitY=1;exitDx=0;exitDy=0;entryX=0.5;entryY=0;entryDx=0;entryDy=0;strokeWidth=4;strokeColor=#EDEDED;curved=1;" parent="1" source="ImhGzAs-u86jqNpPHCjo-7" target="ImhGzAs-u86jqNpPHCjo-13" edge="1">
          <mxGeometry relative="1" as="geometry" />
        </mxCell>
        <mxCell id="ImhGzAs-u86jqNpPHCjo-7" value="&lt;h1&gt;&lt;font style=&quot;font-size: 20px;&quot;&gt;&lt;b&gt;HIsarna Authorization&lt;/b&gt;&lt;/font&gt;&lt;/h1&gt;" style="whiteSpace=wrap;html=1;fillColor=#d5e8d4;strokeColor=#82b366;" parent="1" vertex="1">
          <mxGeometry x="10" y="-1550" width="260" height="80" as="geometry" />
        </mxCell>
        <mxCell id="ImhGzAs-u86jqNpPHCjo-8" value="&lt;font color=&quot;#f7f7f7&quot; style=&quot;font-size: 20px;&quot;&gt;&lt;b&gt;HIsarna.Framework.Services&lt;/b&gt;&lt;/font&gt;" style="ellipse;whiteSpace=wrap;html=1;fillColor=#fad7ac;strokeColor=#b46504;opacity=30;" parent="1" vertex="1">
          <mxGeometry x="-455" y="-704.46" width="280" height="170" as="geometry" />
        </mxCell>
        <mxCell id="ImhGzAs-u86jqNpPHCjo-9" value="&lt;font color=&quot;#f7f7f7&quot; style=&quot;font-size: 20px;&quot;&gt;&lt;b&gt;HIsarna.Framework.Security&lt;/b&gt;&lt;/font&gt;" style="ellipse;whiteSpace=wrap;html=1;fillColor=#fad7ac;strokeColor=#b46504;opacity=30;" parent="1" vertex="1">
          <mxGeometry x="-455" y="-419.46" width="280" height="170" as="geometry" />
        </mxCell>
        <mxCell id="ImhGzAs-u86jqNpPHCjo-10" value="&lt;font style=&quot;font-size: 20px;&quot;&gt;&lt;b&gt;HIsarna.Framework.Security&lt;/b&gt;&lt;/font&gt;" style="ellipse;whiteSpace=wrap;html=1;fillColor=#b1ddf0;strokeColor=#10739e;" parent="1" vertex="1">
          <mxGeometry x="-455" y="-419.46" width="280" height="170" as="geometry" />
        </mxCell>
        <mxCell id="ImhGzAs-u86jqNpPHCjo-11" value="&lt;font style=&quot;font-size: 20px;&quot;&gt;&lt;b&gt;HIsarna.Framework.Services&lt;/b&gt;&lt;/font&gt;" style="ellipse;whiteSpace=wrap;html=1;fillColor=#b1ddf0;strokeColor=#10739e;" parent="1" vertex="1">
          <mxGeometry x="-455" y="-704.46" width="280" height="170" as="geometry" />
        </mxCell>
        <mxCell id="ImhGzAs-u86jqNpPHCjo-12" value="&lt;font style=&quot;font-size: 20px;&quot;&gt;&lt;b&gt;HIsarna.Framework.Domain&lt;br&gt;&lt;/b&gt;&lt;b style=&quot;border-color: var(--border-color);&quot;&gt;(Overrides Helpers)&lt;/b&gt;&lt;b&gt;&lt;br&gt;&lt;/b&gt;&lt;/font&gt;" style="ellipse;whiteSpace=wrap;html=1;fillColor=#b1ddf0;strokeColor=#10739e;" parent="1" vertex="1">
          <mxGeometry x="-445" y="-1250" width="270" height="170" as="geometry" />
        </mxCell>
        <mxCell id="ImhGzAs-u86jqNpPHCjo-13" value="&lt;font style=&quot;font-size: 20px;&quot;&gt;&lt;b&gt;HIsarna.Core.Domain&lt;br&gt;(Overrides Helpers)&lt;br&gt;&lt;/b&gt;&lt;/font&gt;" style="ellipse;whiteSpace=wrap;html=1;fillColor=#d0cee2;strokeColor=#56517e;" parent="1" vertex="1">
          <mxGeometry x="440" y="-1240" width="270" height="170" as="geometry" />
        </mxCell>
        <mxCell id="ImhGzAs-u86jqNpPHCjo-14" value="&lt;font style=&quot;font-size: 20px;&quot;&gt;&lt;b&gt;HIsarna.Core.Services&lt;/b&gt;&lt;/font&gt;" style="ellipse;whiteSpace=wrap;html=1;fillColor=#d0cee2;strokeColor=#56517e;" parent="1" vertex="1">
          <mxGeometry x="440" y="-704.46" width="270" height="170" as="geometry" />
        </mxCell>
        <mxCell id="ImhGzAs-u86jqNpPHCjo-15" value="&lt;font style=&quot;font-size: 20px;&quot;&gt;&lt;b&gt;HIsarna.Core.Security&lt;/b&gt;&lt;/font&gt;" style="ellipse;whiteSpace=wrap;html=1;fillColor=#d0cee2;strokeColor=#56517e;" parent="1" vertex="1">
          <mxGeometry x="440" y="-419.46" width="270" height="170" as="geometry" />
        </mxCell>
        <mxCell id="ImhGzAs-u86jqNpPHCjo-16" style="edgeStyle=orthogonalEdgeStyle;rounded=0;orthogonalLoop=1;jettySize=auto;html=1;exitX=0.5;exitY=1;exitDx=0;exitDy=0;strokeWidth=4;strokeColor=#FFFFFF;curved=1;" parent="1" source="ImhGzAs-u86jqNpPHCjo-11" target="ImhGzAs-u86jqNpPHCjo-10" edge="1">
          <mxGeometry relative="1" as="geometry">
            <mxPoint x="-325" y="-511.82" as="sourcePoint" />
            <mxPoint x="-330" y="-121.82000000000001" as="targetPoint" />
          </mxGeometry>
        </mxCell>
        <mxCell id="ImhGzAs-u86jqNpPHCjo-17" style="edgeStyle=orthogonalEdgeStyle;rounded=0;orthogonalLoop=1;jettySize=auto;html=1;exitX=0.5;exitY=1;exitDx=0;exitDy=0;strokeWidth=4;strokeColor=#FFFFFF;curved=1;" parent="1" edge="1">
          <mxGeometry relative="1" as="geometry">
            <mxPoint x="574.29" y="-534.46" as="sourcePoint" />
            <mxPoint x="574.29" y="-419.46" as="targetPoint" />
          </mxGeometry>
        </mxCell>
        <mxCell id="ImhGzAs-u86jqNpPHCjo-18" value="&lt;font style=&quot;font-size: 20px;&quot;&gt;&lt;b&gt;HIsarna.Core.Data&lt;/b&gt;&lt;/font&gt;" style="ellipse;whiteSpace=wrap;html=1;fillColor=#d0cee2;strokeColor=#56517e;" parent="1" vertex="1">
          <mxGeometry x="440" y="-960" width="270" height="170" as="geometry" />
        </mxCell>
        <mxCell id="ImhGzAs-u86jqNpPHCjo-19" value="&lt;font style=&quot;font-size: 20px;&quot;&gt;&lt;b&gt;HIsarna.Framework.Data&lt;/b&gt;&lt;/font&gt;" style="ellipse;whiteSpace=wrap;html=1;fillColor=#B1DDF0;strokeColor=#10739e;" parent="1" vertex="1">
          <mxGeometry x="-452.5" y="-970" width="275" height="170" as="geometry" />
        </mxCell>
        <mxCell id="ImhGzAs-u86jqNpPHCjo-20" value="&lt;font color=&quot;#ffffff&quot; style=&quot;font-size: 16px; background-color: rgb(10, 10, 10);&quot;&gt;Impliments&lt;/font&gt;" style="endArrow=open;endSize=12;dashed=1;html=1;rounded=0;strokeWidth=4;strokeColor=#FFFFFF;entryX=0;entryY=0.5;entryDx=0;entryDy=0;" parent="1" target="ImhGzAs-u86jqNpPHCjo-3" edge="1">
          <mxGeometry width="160" relative="1" as="geometry">
            <mxPoint x="-180" y="-620.17" as="sourcePoint" />
            <mxPoint x="-20" y="-620.17" as="targetPoint" />
          </mxGeometry>
        </mxCell>
        <mxCell id="ImhGzAs-u86jqNpPHCjo-21" value="&lt;font color=&quot;#ffffff&quot; style=&quot;font-size: 16px; background-color: rgb(10, 10, 10);&quot;&gt;Impliments&lt;/font&gt;" style="endArrow=none;endSize=12;dashed=1;html=1;rounded=0;strokeWidth=4;strokeColor=#FFFFFF;entryX=0;entryY=0.5;entryDx=0;entryDy=0;exitX=1;exitY=0.5;exitDx=0;exitDy=0;startArrow=open;startFill=0;endFill=0;" parent="1" source="ImhGzAs-u86jqNpPHCjo-3" target="ImhGzAs-u86jqNpPHCjo-14" edge="1">
          <mxGeometry width="160" relative="1" as="geometry">
            <mxPoint x="310" y="-550" as="sourcePoint" />
            <mxPoint x="380" y="-560" as="targetPoint" />
          </mxGeometry>
        </mxCell>
        <mxCell id="ImhGzAs-u86jqNpPHCjo-22" style="edgeStyle=orthogonalEdgeStyle;rounded=0;orthogonalLoop=1;jettySize=auto;html=1;strokeWidth=4;strokeColor=#FFFFFF;curved=1;exitX=0.5;exitY=1;exitDx=0;exitDy=0;entryX=0.5;entryY=0;entryDx=0;entryDy=0;" parent="1" source="ImhGzAs-u86jqNpPHCjo-18" target="ImhGzAs-u86jqNpPHCjo-14" edge="1">
          <mxGeometry relative="1" as="geometry">
            <mxPoint x="690" y="-760" as="sourcePoint" />
            <mxPoint x="650" y="-750" as="targetPoint" />
          </mxGeometry>
        </mxCell>
        <mxCell id="ImhGzAs-u86jqNpPHCjo-23" style="edgeStyle=orthogonalEdgeStyle;rounded=0;orthogonalLoop=1;jettySize=auto;html=1;strokeWidth=4;strokeColor=#FFFFFF;curved=1;exitX=0.5;exitY=1;exitDx=0;exitDy=0;entryX=0.5;entryY=0;entryDx=0;entryDy=0;" parent="1" source="ImhGzAs-u86jqNpPHCjo-19" target="ImhGzAs-u86jqNpPHCjo-11" edge="1">
          <mxGeometry relative="1" as="geometry">
            <mxPoint x="-360" y="-780" as="sourcePoint" />
            <mxPoint x="-155" y="-730" as="targetPoint" />
          </mxGeometry>
        </mxCell>
        <mxCell id="ImhGzAs-u86jqNpPHCjo-24" value="&lt;font color=&quot;#ffffff&quot; style=&quot;font-size: 16px; background-color: rgb(10, 10, 10);&quot;&gt;Impliments&lt;/font&gt;" style="endArrow=none;endSize=12;dashed=1;html=1;rounded=0;strokeWidth=4;strokeColor=#FFFFFF;startArrow=open;startFill=0;endFill=0;entryX=0;entryY=0.5;entryDx=0;entryDy=0;exitX=1;exitY=0.5;exitDx=0;exitDy=0;" parent="1" source="ImhGzAs-u86jqNpPHCjo-1" target="ImhGzAs-u86jqNpPHCjo-13" edge="1">
          <mxGeometry width="160" relative="1" as="geometry">
            <mxPoint x="320" y="-1210" as="sourcePoint" />
            <mxPoint x="410" y="-1180" as="targetPoint" />
          </mxGeometry>
        </mxCell>
        <mxCell id="ImhGzAs-u86jqNpPHCjo-25" value="&lt;font color=&quot;#ffffff&quot; style=&quot;font-size: 16px; background-color: rgb(10, 10, 10);&quot;&gt;Impliments&lt;/font&gt;" style="endArrow=open;endSize=12;dashed=1;html=1;rounded=0;strokeWidth=4;strokeColor=#FFFFFF;entryX=0;entryY=0.5;entryDx=0;entryDy=0;exitX=1;exitY=0.5;exitDx=0;exitDy=0;" parent="1" source="ImhGzAs-u86jqNpPHCjo-12" target="ImhGzAs-u86jqNpPHCjo-1" edge="1">
          <mxGeometry width="160" relative="1" as="geometry">
            <mxPoint x="-150" y="-1170" as="sourcePoint" />
            <mxPoint x="40" y="-1168.83" as="targetPoint" />
          </mxGeometry>
        </mxCell>
        <mxCell id="ImhGzAs-u86jqNpPHCjo-26" value="&lt;span style=&quot;background-color: rgb(5, 5, 5); font-size: 15px;&quot;&gt;&lt;font style=&quot;font-size: 15px;&quot; color=&quot;#ffffff&quot;&gt;Uses&lt;/font&gt;&lt;/span&gt;" style="endArrow=open;endSize=12;dashed=1;html=1;rounded=0;strokeColor=#FFFFFF;strokeWidth=3;exitX=0;exitY=0;exitDx=0;exitDy=0;edgeStyle=orthogonalEdgeStyle;curved=1;entryX=1;entryY=1;entryDx=0;entryDy=0;fontStyle=1;fontSize=15;" parent="1" source="ImhGzAs-u86jqNpPHCjo-14" target="ImhGzAs-u86jqNpPHCjo-2" edge="1">
          <mxGeometry x="0.2377" y="-58" width="160" relative="1" as="geometry">
            <mxPoint x="240" y="-790" as="sourcePoint" />
            <mxPoint x="230" y="-870" as="targetPoint" />
            <mxPoint as="offset" />
          </mxGeometry>
        </mxCell>
        <mxCell id="ImhGzAs-u86jqNpPHCjo-27" value="&lt;span style=&quot;background-color: rgb(5, 5, 5); font-size: 15px;&quot;&gt;&lt;font style=&quot;font-size: 15px;&quot; color=&quot;#ffffff&quot;&gt;Uses&lt;/font&gt;&lt;/span&gt;" style="endArrow=open;endSize=12;dashed=1;html=1;rounded=0;strokeColor=#FFFFFF;strokeWidth=3;edgeStyle=orthogonalEdgeStyle;curved=1;entryX=0;entryY=1;entryDx=0;entryDy=0;fontStyle=1;fontSize=15;exitX=1;exitY=0;exitDx=0;exitDy=0;" parent="1" source="ImhGzAs-u86jqNpPHCjo-11" target="ImhGzAs-u86jqNpPHCjo-2" edge="1">
          <mxGeometry x="0.2603" y="68" width="160" relative="1" as="geometry">
            <mxPoint x="-150" y="-670" as="sourcePoint" />
            <mxPoint x="-150" y="-1030" as="targetPoint" />
            <mxPoint as="offset" />
          </mxGeometry>
        </mxCell>
        <mxCell id="ImhGzAs-u86jqNpPHCjo-28" style="edgeStyle=orthogonalEdgeStyle;rounded=0;orthogonalLoop=1;jettySize=auto;html=1;strokeWidth=4;strokeColor=#FFFFFF;curved=1;exitX=0.5;exitY=1;exitDx=0;exitDy=0;entryX=0.5;entryY=0;entryDx=0;entryDy=0;" parent="1" source="ImhGzAs-u86jqNpPHCjo-13" target="ImhGzAs-u86jqNpPHCjo-18" edge="1">
          <mxGeometry relative="1" as="geometry">
            <mxPoint x="570" y="-1056" as="sourcePoint" />
            <mxPoint x="570" y="-970" as="targetPoint" />
          </mxGeometry>
        </mxCell>
        <mxCell id="ImhGzAs-u86jqNpPHCjo-29" style="edgeStyle=orthogonalEdgeStyle;rounded=0;orthogonalLoop=1;jettySize=auto;html=1;strokeWidth=4;strokeColor=#FFFFFF;curved=1;exitX=0.5;exitY=1;exitDx=0;exitDy=0;entryX=0.5;entryY=0;entryDx=0;entryDy=0;" parent="1" edge="1">
          <mxGeometry relative="1" as="geometry">
            <mxPoint x="-310.83000000000004" y="-1080" as="sourcePoint" />
            <mxPoint x="-310.83000000000004" y="-970" as="targetPoint" />
          </mxGeometry>
        </mxCell>
      </root>
    </mxGraphModel>
  </diagram>
</mxfile>
